<svg width="806" height="286" viewBox="0 0 806 286" fill="none" xmlns="http://www.w3.org/2000/svg">
<path d="M237.41 99.03C240.68 98.24 244.09 97.81 247.6 97.81C257.6 97.81 266.81 101.21 274.17 106.9C276.54 100.7 277.86 93.98 277.86 86.95C277.86 56.07 252.74 30.95 221.86 30.95C203.12 30.95 186.5 40.22 176.34 54.4C201.81 61.2 223.49 77.39 237.41 99.03Z" fill="#1C1C1C"/>
<path d="M165.86 86.96C165.86 111.64 181.92 132.63 204.13 140.07C204.6 123.75 214.09 109.65 227.79 102.61C214.67 83.21 194.54 68.92 171.07 63.4C167.74 70.57 165.86 78.54 165.86 86.96Z" fill="#999999"/>
<path d="M205.16 150.81C176.83 143.39 155.87 117.58 155.87 86.96C155.87 77.98 157.68 69.41 160.94 61.6C157.17 61.14 153.34 60.9 149.46 60.9C97.35 60.9 54.96 103.29 54.96 155.4C54.96 207.51 97.35 249.9 149.46 249.9C191.58 249.9 227.35 222.19 239.51 184.05C222.47 180.83 208.92 167.65 205.16 150.81Z" fill="#6BBBAE"/>
<path d="M214.1 141.32C214.1 141.69 214.12 142.05 214.13 142.41C216.66 142.76 219.24 142.95 221.86 142.95C229.16 142.95 236.13 141.53 242.53 138.98C240.79 129.11 237.52 119.76 232.96 111.19C221.8 116.64 214.1 128.09 214.1 141.32Z" fill="#1C1C1C"/>
<path d="M243.95 155.4C243.95 153.32 243.87 151.26 243.74 149.21C236.89 151.63 229.52 152.96 221.85 152.96C219.91 152.96 217.98 152.86 216.08 152.69C220.13 163.9 230.01 172.33 242.03 174.35C243.29 168.23 243.95 161.89 243.95 155.4Z" fill="#1C1C1C"/>
<path d="M281.11 141.32C281.11 135.04 279.37 129.17 276.35 124.14C270.47 132.74 262.61 139.88 253.43 144.9C253.78 148.36 253.96 151.86 253.96 155.4C253.96 161.92 253.35 168.3 252.2 174.5C268.5 172.25 281.11 158.23 281.11 141.32Z" fill="#1C1C1C"/>
<path d="M269.64 116.12C263.74 110.96 256.03 107.82 247.6 107.82C245.92 107.82 244.27 107.95 242.66 108.19C246.8 116.33 249.9 125.07 251.8 134.25C259.04 129.64 265.16 123.44 269.64 116.12Z" fill="#1C1C1C"/>
<path d="M331.59 111.38H343.97L373.54 179.35H356.64L350.78 164.95H324.38L318.72 179.35H302.21L331.59 111.38ZM337.35 131.16L329.09 152.28H345.7L337.35 131.16Z" fill="#1C1C1C"/>
<path d="M380.36 111.38H402.82C408.26 111.38 413.43 111.99 418.32 113.2C423.22 114.42 427.49 116.39 431.14 119.1C434.79 121.82 437.68 125.36 439.83 129.71C441.97 134.06 443.04 139.34 443.04 145.55C443.04 151.05 442 155.9 439.92 160.09C437.84 164.28 435.04 167.8 431.52 170.65C428 173.5 423.94 175.66 419.33 177.13C414.72 178.6 409.89 179.34 404.83 179.34H380.35V111.38H380.36ZM395.34 165.52H403.12C406.58 165.52 409.79 165.17 412.77 164.46C415.75 163.76 418.32 162.59 420.5 160.96C422.67 159.33 424.39 157.18 425.63 154.53C426.88 151.88 427.5 148.63 427.5 144.79C427.5 141.46 426.88 138.57 425.63 136.1C424.38 133.64 422.7 131.6 420.59 130C418.48 128.4 416 127.2 413.15 126.4C410.3 125.6 407.31 125.2 404.17 125.2H395.34V165.52Z" fill="#1C1C1C"/>
<path d="M451.3 111.38H477.6C481.06 111.38 484.34 111.72 487.44 112.39C490.54 113.06 493.26 114.18 495.6 115.75C497.94 117.32 499.79 119.43 501.17 122.09C502.55 124.75 503.23 128.06 503.23 132.03C503.23 136.83 501.98 140.91 499.49 144.27C496.99 147.63 493.35 149.76 488.55 150.65L505.83 179.35H487.88L473.67 152.18H466.28V179.35H451.3V111.38ZM466.28 139.51H475.11C476.45 139.51 477.88 139.46 479.38 139.37C480.88 139.27 482.24 138.99 483.46 138.51C484.67 138.03 485.68 137.28 486.48 136.25C487.28 135.23 487.68 133.79 487.68 131.93C487.68 130.2 487.33 128.83 486.62 127.8C485.91 126.78 485.02 125.99 483.93 125.45C482.84 124.91 481.59 124.54 480.19 124.35C478.78 124.16 477.41 124.06 476.06 124.06H466.27V139.51H466.28Z" fill="#1C1C1C"/>
<path d="M573.7 153.43C573.7 157.14 573.24 160.66 572.31 163.99C571.38 167.32 569.91 170.25 567.89 172.77C565.87 175.3 563.23 177.31 559.97 178.82C556.71 180.32 552.74 181.08 548.07 181.08C543.4 181.08 539.43 180.33 536.17 178.82C532.91 177.32 530.27 175.3 528.25 172.77C526.23 170.24 524.76 167.31 523.83 163.99C522.9 160.66 522.44 157.14 522.44 153.43V111.38H530.5V152.28C530.5 155.03 530.79 157.69 531.36 160.25C531.94 162.81 532.9 165.08 534.24 167.07C535.58 169.05 537.37 170.64 539.62 171.82C541.86 173 544.68 173.6 548.07 173.6C551.46 173.6 554.28 173.01 556.52 171.82C558.76 170.64 560.55 169.05 561.9 167.07C563.24 165.09 564.2 162.82 564.78 160.25C565.36 157.69 565.64 155.03 565.64 152.28V111.38H573.7V153.43Z" fill="#999999"/>
<path d="M586.47 111.38H594.53V140.76H595.68L626.59 111.38H638.21L604.61 142.39L639.84 179.35H628.03L595.68 144.79H594.53V179.35H586.47V111.38Z" fill="#999999"/>
<path d="M338.461 74.168C338.653 77.048 339.085 78.44 341.005 79.112L340.957 79.4H326.413L326.461 79.112C329.149 78.296 330.109 76.424 330.013 72.632L329.869 67.112H319.597L315.949 73.496C313.885 77.048 314.845 78.392 316.861 79.112L316.813 79.4H307.549L307.597 79.112C310.237 78.44 311.965 76.856 314.029 73.304L330.205 45.512H336.541L338.461 74.168ZM320.317 65.864H329.821L329.389 50.12L320.317 65.864Z" fill="#999999"/>
<path d="M364.284 44.936C365.484 44.936 366.684 45.32 367.356 45.8L365.34 50.648H364.716C363.996 48.584 362.892 46.616 361.068 46.328C360.204 46.616 359.772 47.624 359.484 48.968L358.188 54.728H362.7L362.268 55.976H357.9L353.484 75.752C351.468 84.728 344.364 89.72 340.428 89.72C339.708 89.72 337.836 89.624 336.636 88.664L338.46 83.144H339.084C339.852 86.648 341.436 88.184 342.828 88.184C343.5 87.848 343.932 86.792 344.22 85.448L350.556 58.04C350.7 57.32 350.892 56.648 351.132 55.976H347.628L348.012 54.728H351.564C354.636 46.904 361.02 44.936 364.284 44.936Z" fill="#999999"/>
<path d="M379.952 44.936C381.152 44.936 382.352 45.32 383.024 45.8L381.008 50.648H380.384C379.664 48.584 378.56 46.616 376.736 46.328C375.872 46.616 375.44 47.624 375.152 48.968L373.856 54.728H378.368L377.936 55.976H373.568L369.152 75.752C367.136 84.728 360.032 89.72 356.096 89.72C355.376 89.72 353.504 89.624 352.304 88.664L354.128 83.144H354.752C355.52 86.648 357.104 88.184 358.496 88.184C359.168 87.848 359.6 86.792 359.888 85.448L366.224 58.04C366.368 57.32 366.56 56.648 366.8 55.976H363.296L363.68 54.728H367.232C370.304 46.904 376.688 44.936 379.952 44.936Z" fill="#999999"/>
<path d="M388.131 52.472C385.875 52.472 384.147 50.648 384.147 48.536C384.147 46.376 385.875 44.6 388.131 44.6C390.387 44.6 392.163 46.376 392.163 48.536C392.163 50.696 390.435 52.472 388.131 52.472ZM379.587 80.072C378.435 80.072 377.091 79.544 377.091 77.432C377.091 76.856 377.235 76.136 377.475 75.272L381.987 59.288C382.323 57.992 382.179 57.128 380.355 57.224L379.731 57.272L379.827 56.792L390.531 54.008L385.491 72.152C385.203 73.064 385.395 73.688 386.019 73.688C386.739 73.688 388.275 72.584 390.147 70.088L390.723 70.424C388.275 73.976 383.571 80.072 379.587 80.072Z" fill="#999999"/>
<path d="M401.152 72.2C400.912 73.112 401.056 73.736 401.776 73.736C402.448 73.736 403.792 72.632 405.472 70.232L406.048 70.568C403.552 74.456 398.848 80.12 395.44 80.12C394.096 80.12 392.896 79.208 392.896 77.192C392.896 76.616 392.992 75.944 393.232 75.176L400.096 49.64C400.48 48.344 400.336 47.432 398.512 47.576L397.792 47.624L397.888 47.144L408.688 44.36L401.152 72.2Z" fill="#999999"/>
<path d="M419.841 52.472C417.585 52.472 415.857 50.648 415.857 48.536C415.857 46.376 417.585 44.6 419.841 44.6C422.097 44.6 423.873 46.376 423.873 48.536C423.873 50.696 422.145 52.472 419.841 52.472ZM411.297 80.072C410.145 80.072 408.801 79.544 408.801 77.432C408.801 76.856 408.945 76.136 409.185 75.272L413.697 59.288C414.033 57.992 413.889 57.128 412.065 57.224L411.441 57.272L411.537 56.792L422.241 54.008L417.201 72.152C416.913 73.064 417.105 73.688 417.729 73.688C418.449 73.688 419.985 72.584 421.857 70.088L422.433 70.424C419.985 73.976 415.281 80.072 411.297 80.072Z" fill="#999999"/>
<path d="M446.446 73.736C447.166 73.736 448.702 72.68 450.43 70.184L451.006 70.616C447.214 76.76 443.278 80.12 440.11 80.12C438.67 80.12 437.71 79.352 437.71 77.384C437.71 76.136 438.19 74.408 438.718 72.824L440.35 67.736C435.262 76.04 430.942 80.12 427.822 80.12C425.902 80.12 424.03 78.968 424.03 75.368C424.03 69.32 428.878 61.688 434.926 57.32C437.614 55.496 441.07 54.008 444.094 54.008C445.246 54.008 446.302 54.2 447.262 54.632L452.062 53.192L446.11 71.912C445.726 73.256 445.966 73.736 446.446 73.736ZM433.246 73.736C434.782 73.736 437.038 71.384 441.166 65.192L443.566 57.56C442.51 56.504 440.926 56.072 439.102 56.072C434.302 59.096 431.95 67.064 431.95 71.192C431.95 73.208 432.526 73.736 433.246 73.736Z" fill="#999999"/>
<path d="M466.65 55.976L461.802 71.96C461.514 72.92 461.514 73.736 462.426 73.736C463.482 73.736 464.826 72.44 467.082 69.368L467.658 69.656C465.498 73.784 459.882 80.12 455.946 80.12C454.506 80.12 453.402 79.352 453.402 77.384C453.402 76.664 453.546 75.8 453.834 74.84L459.546 55.976H456.762L457.194 54.728H459.93L460.89 51.56L469.05 48.056L467.034 54.728H471.066L470.634 55.976H466.65Z" fill="#999999"/>
<path d="M493.129 57.08C493.129 60.968 487.657 65.576 477.433 67.16C477.433 72.584 480.169 74.12 483.001 74.12C485.929 74.12 488.233 72.392 489.721 69.704L490.249 69.944C487.897 75.176 484.393 80.12 477.961 80.12C474.121 80.12 470.713 78.296 470.713 72.776C470.713 63.224 480.697 54.008 489.049 54.008C492.025 54.008 493.129 55.352 493.129 57.08ZM477.433 66.488C481.945 65.576 485.497 62.648 485.497 59.048C485.497 57.416 484.681 56.216 483.433 56.216C480.601 57.464 477.673 61.304 477.433 66.488Z" fill="#999999"/>
<path d="M515.483 73.736C516.203 73.736 517.643 72.68 519.275 70.184L519.803 70.52C516.347 76.664 512.651 80.12 509.483 80.12C507.899 80.12 506.651 79.352 506.651 77.24C506.651 75.992 507.227 74.264 507.611 72.824L508.859 68.12C504.347 76.136 500.267 80.12 497.147 80.12C495.131 80.12 493.115 78.872 493.115 74.888C493.115 65.72 502.763 54.008 511.595 54.008C511.931 54.008 512.315 54.008 512.651 54.056L513.707 50.168C514.091 48.632 513.563 47.72 511.499 48.008L509.867 48.152L510.011 47.576L522.395 44.36L515.051 71.912C514.715 73.256 514.955 73.736 515.483 73.736ZM502.283 73.736C503.819 73.736 505.931 71.432 509.675 65.192L511.595 58.088C510.395 56.744 508.763 56.168 506.987 56.12C503.051 59.384 500.795 66.68 500.795 70.712C500.795 73.112 501.467 73.736 502.283 73.736Z" fill="#999999"/>
<path d="M567.628 53.48C568.78 54.68 569.308 56.792 569.308 58.376C569.308 64.136 565.612 69.368 550.684 80.072L550.204 79.784L550.012 68.6C547.9 72.584 543.34 76.328 537.82 80.072L537.34 79.784L536.62 61.016C536.572 58.904 536.188 57.56 534.412 57.608L534.46 57.272L543.34 53.48L544.06 74.504C547.468 71.72 550.204 67.304 550.204 63.56C550.204 61.112 549.388 58.76 547.708 57.608L547.756 57.32L554.668 53.48C555.676 54.44 556.348 56.264 556.396 58.808L556.876 74.552C560.284 71.816 562.972 67.544 562.972 63.704C562.972 61.208 562.252 58.76 560.668 57.608V57.32L567.628 53.48Z" fill="#999999"/>
<path d="M581.17 52.472C578.914 52.472 577.186 50.648 577.186 48.536C577.186 46.376 578.914 44.6 581.17 44.6C583.426 44.6 585.202 46.376 585.202 48.536C585.202 50.696 583.474 52.472 581.17 52.472ZM572.626 80.072C571.474 80.072 570.13 79.544 570.13 77.432C570.13 76.856 570.274 76.136 570.514 75.272L575.026 59.288C575.362 57.992 575.218 57.128 573.394 57.224L572.77 57.272L572.866 56.792L583.57 54.008L578.53 72.152C578.242 73.064 578.434 73.688 579.058 73.688C579.778 73.688 581.314 72.584 583.186 70.088L583.762 70.424C581.314 73.976 576.61 80.072 572.626 80.072Z" fill="#999999"/>
<path d="M599.327 55.976L594.479 71.96C594.191 72.92 594.191 73.736 595.103 73.736C596.159 73.736 597.503 72.44 599.759 69.368L600.335 69.656C598.175 73.784 592.559 80.12 588.623 80.12C587.183 80.12 586.079 79.352 586.079 77.384C586.079 76.664 586.223 75.8 586.511 74.84L592.223 55.976H589.439L589.871 54.728H592.607L593.567 51.56L601.727 48.056L599.711 54.728H603.743L603.311 55.976H599.327Z" fill="#999999"/>
<path d="M629.454 70.184L630.03 70.52C628.062 73.496 623.598 80.12 619.758 80.12C618.174 80.12 616.686 79.304 616.686 77.048C616.686 75.416 617.358 73.256 619.086 68.504C620.238 65.384 621.15 62.6 621.15 61.544C621.15 60.92 620.814 60.488 620.286 60.488C619.134 60.488 617.022 62.216 612.318 68.936L609.486 79.4H602.382L610.302 49.64C610.686 48.344 610.542 47.432 608.718 47.576L607.998 47.624L608.094 47.144L618.894 44.36L612.846 66.872C617.934 59.192 622.014 54.008 625.902 54.008C627.774 54.008 629.166 54.92 629.166 57.32C629.166 59.096 628.11 62.216 626.862 65.672C625.806 68.6 624.702 71.912 624.702 72.872C624.702 73.352 624.99 73.736 625.422 73.736C626.142 73.736 627.534 72.728 629.454 70.184Z" fill="#999999"/>
</svg>
