<?xml version="1.0" encoding="UTF-8"?>
<svg id="Layer_2" data-name="Layer 2" xmlns="http://www.w3.org/2000/svg" viewBox="0 0 677.9 194.13">
  <defs>
    <style>
      .cls-1 {
        fill: #30cabf;
      }

      .cls-2 {
        fill: #494951;
      }
    </style>
  </defs>
  <g id="Layer_1-2" data-name="Layer 1">
    <g>
      <g>
        <path class="cls-2" d="M139.83,127.11c2.17,2.22,5.07,3.33,8.7,3.33s6.34-1.1,8.43-3.3c2.09-2.2,3.14-5.24,3.14-9.12v-31.5h12.11v31.5c0,4.7-.96,8.78-2.87,12.23-1.92,3.45-4.66,6.11-8.24,7.97-3.58,1.87-7.79,2.8-12.65,2.8s-9.1-.93-12.72-2.8c-3.63-1.86-6.41-4.52-8.35-7.97-1.94-3.45-2.91-7.52-2.91-12.23v-31.5h12.11v31.5c0,3.83,1.09,6.86,3.26,9.08Z"/>
        <path class="cls-2" d="M225.18,140.18h-14.49l-15.48-22-7.67,8.51v13.49h-12.11v-53.66h12.11v24.99l22.23-24.99h14.1l-20.24,22.31,21.54,31.35Z"/>
        <path class="cls-2" d="M275.01,89.93c4.29,2.27,7.63,5.44,10,9.51,2.38,4.06,3.56,8.7,3.56,13.91s-1.21,9.85-3.64,13.91c-2.43,4.06-5.81,7.23-10.16,9.5-4.34,2.27-9.3,3.41-14.87,3.41h-22.31v-53.66h22.77c5.47,0,10.35,1.14,14.64,3.41ZM268.68,127.87c2.38-1.41,4.23-3.36,5.56-5.86,1.33-2.5,1.99-5.37,1.99-8.59s-.7-6.11-2.11-8.66c-1.41-2.55-3.32-4.53-5.75-5.94-2.43-1.4-5.17-2.11-8.24-2.11h-10.42v33.27h10.96c2.96,0,5.63-.7,8.01-2.11Z"/>
        <path class="cls-2" d="M315.63,140.18v-4.83c-1.38,1.74-3.17,3.07-5.37,3.99-2.2.92-4.73,1.38-7.59,1.38-4.34,0-7.79-1.19-10.35-3.56-2.56-2.38-3.83-5.48-3.83-9.31s1.37-6.91,4.1-9.08c2.73-2.17,6.6-3.28,11.61-3.33h11.34v-.77c0-2.2-.73-3.9-2.18-5.1-1.46-1.2-3.59-1.8-6.4-1.8-3.83,0-7.92,1.2-12.26,3.6l-3.68-8.12c3.27-1.63,6.34-2.84,9.2-3.6,2.86-.77,6-1.15,9.43-1.15,5.52,0,9.8,1.3,12.84,3.91,3.04,2.61,4.59,6.24,4.64,10.88l.08,26.91h-11.57ZM312.34,130.52c1.79-1.18,2.86-2.66,3.22-4.45v-3.68h-9.27c-2.3,0-4,.37-5.1,1.11-1.1.74-1.65,1.93-1.65,3.56s.57,2.85,1.72,3.79c1.15.95,2.72,1.42,4.71,1.42,2.45,0,4.57-.59,6.36-1.76Z"/>
        <path class="cls-2" d="M358.33,137.88c-1.53.92-3.23,1.62-5.1,2.11-1.87.48-3.74.73-5.63.73-3.83,0-6.95-1.1-9.35-3.3-2.4-2.2-3.6-5.34-3.6-9.43v-19.09h-5.75v-8.13h5.75v-11.34h11.73v11.34h11.19v8.2h-11.19v17.02c0,3.17,1.25,4.75,3.76,4.75,1.74,0,3.65-.51,5.75-1.53l2.45,8.66Z"/>
        <path class="cls-2" d="M384.77,140.18v-4.83c-1.38,1.74-3.17,3.07-5.37,3.99-2.2.92-4.73,1.38-7.59,1.38-4.34,0-7.79-1.19-10.35-3.56-2.56-2.38-3.83-5.48-3.83-9.31s1.37-6.91,4.1-9.08c2.73-2.17,6.6-3.28,11.61-3.33h11.34v-.77c0-2.2-.73-3.9-2.18-5.1-1.46-1.2-3.59-1.8-6.4-1.8-3.83,0-7.92,1.2-12.26,3.6l-3.68-8.12c3.27-1.63,6.34-2.84,9.2-3.6,2.86-.77,6-1.15,9.43-1.15,5.52,0,9.8,1.3,12.84,3.91,3.04,2.61,4.59,6.24,4.64,10.88l.08,26.91h-11.57ZM381.48,130.52c1.79-1.18,2.86-2.66,3.22-4.45v-3.68h-9.27c-2.3,0-4,.37-5.1,1.11-1.1.74-1.65,1.93-1.65,3.56s.57,2.85,1.72,3.79c1.15.95,2.72,1.42,4.71,1.42,2.45,0,4.57-.59,6.36-1.76Z"/>
        <path class="cls-2" d="M410.15,86.52h12.11v43.08h23v10.58h-35.11v-53.66Z"/>
        <path class="cls-2" d="M460.39,82.45c1.2,1.23,1.8,2.81,1.8,4.75s-.6,3.53-1.8,4.75c-1.2,1.23-2.75,1.84-4.64,1.84s-3.36-.62-4.56-1.88c-1.2-1.25-1.8-2.82-1.8-4.71s.6-3.53,1.8-4.75c1.2-1.23,2.72-1.84,4.56-1.84s3.44.61,4.64,1.84ZM449.93,98.94h11.8v41.24h-11.8v-41.24Z"/>
        <path class="cls-2" d="M504.01,102.77c2.73,2.86,4.1,6.7,4.1,11.5v25.91h-11.81v-22.46c0-2.61-.73-4.66-2.18-6.17-1.46-1.51-3.44-2.26-5.94-2.26-2.91.05-5.21,1.06-6.9,3.03-1.69,1.97-2.53,4.48-2.53,7.55v20.31h-11.8v-41.24h11.8v7.21c2.86-5.01,7.61-7.56,14.26-7.67,4.6,0,8.27,1.43,11,4.29Z"/>
        <path class="cls-2" d="M539.61,140.18l-9.97-16.79-5.29,5.6v11.19h-11.8v-56.88h11.8v31.27l15.1-15.56h13.41l-15.1,15.87,15.79,25.3h-13.95Z"/>
        <path class="cls-2" d="M577.86,140.18v-4.83c-1.38,1.74-3.17,3.07-5.37,3.99-2.2.92-4.73,1.38-7.59,1.38-4.34,0-7.79-1.19-10.35-3.56-2.56-2.38-3.83-5.48-3.83-9.31s1.37-6.91,4.1-9.08c2.73-2.17,6.6-3.28,11.61-3.33h11.34v-.77c0-2.2-.73-3.9-2.18-5.1-1.46-1.2-3.59-1.8-6.4-1.8-3.83,0-7.92,1.2-12.26,3.6l-3.68-8.12c3.27-1.63,6.34-2.84,9.2-3.6,2.86-.77,6-1.15,9.43-1.15,5.52,0,9.8,1.3,12.84,3.91,3.04,2.61,4.59,6.24,4.64,10.88l.08,26.91h-11.57ZM574.57,130.52c1.79-1.18,2.86-2.66,3.22-4.45v-3.68h-9.27c-2.3,0-4,.37-5.1,1.11-1.1.74-1.65,1.93-1.65,3.56s.57,2.85,1.72,3.79c1.15.95,2.72,1.42,4.71,1.42,2.45,0,4.57-.59,6.36-1.76Z"/>
        <path class="cls-2" d="M633.67,98.94v37.41c0,3.88-.92,7.27-2.76,10.16-1.84,2.89-4.42,5.11-7.74,6.67-3.32,1.56-7.16,2.34-11.5,2.34-3.37,0-6.58-.49-9.62-1.46-3.04-.97-5.81-2.3-8.32-3.99l4.37-8.28c3.88,2.76,8.15,4.14,12.8,4.14,3.37,0,6.06-.83,8.05-2.49,1.99-1.66,2.99-3.9,2.99-6.71v-4.68c-1.38,1.94-3.12,3.42-5.21,4.45-2.1,1.02-4.5,1.53-7.21,1.53-3.53,0-6.66-.83-9.39-2.49-2.73-1.66-4.86-4-6.36-7.01-1.51-3.01-2.26-6.49-2.26-10.42s.75-7.29,2.26-10.23c1.51-2.94,3.63-5.22,6.36-6.86,2.73-1.63,5.86-2.45,9.39-2.45,2.66,0,5.03.52,7.13,1.57,2.09,1.05,3.86,2.52,5.29,4.41v-5.6h11.73ZM619.26,126.11c1.79-1.97,2.68-4.53,2.68-7.7s-.9-5.75-2.68-7.74c-1.79-1.99-4.11-2.99-6.98-2.99s-5.19,1-6.98,2.99c-1.79,1.99-2.71,4.57-2.76,7.74.05,3.17.96,5.74,2.72,7.7,1.76,1.97,4.1,2.95,7.01,2.95s5.19-.98,6.98-2.95Z"/>
        <path class="cls-2" d="M672.72,104.3c3.45,3.83,5.17,9.17,5.17,16.02,0,1.23-.03,2.17-.08,2.84h-29.59c.66,2.61,1.94,4.64,3.83,6.09,1.89,1.46,4.16,2.19,6.82,2.19,1.94,0,3.81-.37,5.6-1.11,1.79-.74,3.4-1.83,4.83-3.26l6.21,6.29c-2.1,2.35-4.64,4.15-7.63,5.4-2.99,1.25-6.32,1.88-10,1.88-4.34,0-8.14-.87-11.38-2.61-3.25-1.74-5.75-4.19-7.51-7.36-1.76-3.17-2.64-6.82-2.64-10.96s.89-7.88,2.68-11.08c1.79-3.19,4.29-5.67,7.51-7.44,3.22-1.76,6.9-2.64,11.04-2.64,6.64,0,11.69,1.92,15.14,5.75ZM666.78,116.18c-.1-2.71-.97-4.88-2.61-6.52-1.64-1.64-3.81-2.45-6.52-2.45-2.56,0-4.69.81-6.4,2.41-1.71,1.61-2.8,3.79-3.26,6.55h18.78Z"/>
      </g>
      <g>
        <path class="cls-1" d="M149.4,164.59c-1.71-.86-3.42-1.29-5.15-1.29-2.08,0-3.98.51-5.7,1.53-1.73,1.02-3.08,2.41-4.06,4.17-.99,1.76-1.48,3.71-1.48,5.86s.49,4.11,1.48,5.89c.98,1.78,2.34,3.19,4.06,4.22,1.72,1.04,3.62,1.56,5.7,1.56,1.65,0,3.33-.4,5.04-1.19,1.71-.79,3.23-1.86,4.57-3.19l4.91,5.33c-1.97,2.04-4.29,3.66-6.94,4.86-2.66,1.2-5.32,1.79-8,1.79-3.63,0-6.92-.84-9.87-2.51-2.96-1.67-5.28-3.97-6.97-6.89-1.69-2.92-2.53-6.18-2.53-9.77s.86-6.77,2.59-9.66c1.72-2.89,4.09-5.16,7.1-6.81,3.01-1.65,6.34-2.48,10-2.48,2.67,0,5.31.55,7.92,1.66,2.6,1.11,4.82,2.61,6.65,4.51l-4.86,5.97c-1.27-1.51-2.75-2.7-4.46-3.56Z"/>
        <path class="cls-1" d="M200.9,158.49c3.03,1.65,5.41,3.93,7.15,6.84s2.61,6.13,2.61,9.69-.87,6.79-2.61,9.71c-1.74,2.92-4.13,5.22-7.15,6.89-3.03,1.67-6.39,2.51-10.08,2.51s-7.06-.84-10.08-2.51c-3.03-1.67-5.41-3.96-7.15-6.86-1.74-2.9-2.61-6.15-2.61-9.74s.87-6.78,2.61-9.69,4.12-5.18,7.13-6.84c3.01-1.65,6.38-2.48,10.11-2.48s7.06.83,10.08,2.48ZM185.22,164.85c-1.76,1.04-3.15,2.45-4.17,4.25-1.02,1.79-1.53,3.77-1.53,5.91s.52,4.17,1.56,5.97c1.04,1.79,2.43,3.22,4.17,4.28,1.74,1.06,3.63,1.58,5.68,1.58s3.91-.52,5.62-1.56c1.71-1.04,3.06-2.46,4.07-4.28,1-1.81,1.5-3.81,1.5-5.99s-.5-4.12-1.5-5.91c-1-1.79-2.36-3.21-4.07-4.25-1.71-1.04-3.58-1.56-5.62-1.56s-3.94.52-5.7,1.56Z"/>
        <path class="cls-1" d="M226.71,156.59h9.29l11.51,22.7,11.4-22.7h9.24v36.95h-7.5v-24.97l-10.51,21.22h-5.39l-10.56-21.22v24.97h-7.5v-36.95Z"/>
        <path class="cls-1" d="M286.9,156.59h9.29l11.51,22.7,11.4-22.7h9.24v36.95h-7.5v-24.97l-10.51,21.22h-5.39l-10.56-21.22v24.97h-7.5v-36.95Z"/>
        <path class="cls-1" d="M357.03,184.55c1.5,1.53,3.49,2.3,5.99,2.3s4.36-.76,5.81-2.27c1.44-1.51,2.16-3.61,2.16-6.28v-21.7h8.34v21.7c0,3.24-.66,6.04-1.98,8.42s-3.21,4.21-5.68,5.49c-2.46,1.29-5.37,1.93-8.71,1.93s-6.27-.64-8.76-1.93c-2.5-1.28-4.42-3.11-5.75-5.49-1.34-2.38-2.01-5.18-2.01-8.42v-21.7h8.34v21.7c0,2.64.75,4.73,2.24,6.26Z"/>
        <path class="cls-1" d="M422.94,156.59h7.92v36.95h-7.6l-17.9-23.76v23.76h-7.97v-36.95h7.6l17.95,23.86v-23.86Z"/>
        <path class="cls-1" d="M449.55,156.59h8.34v36.95h-8.34v-36.95Z"/>
        <path class="cls-1" d="M472.99,156.59h30.88v7.07h-11.3v29.88h-8.34v-29.88h-11.24v-7.07Z"/>
        <path class="cls-1" d="M550.17,156.59l-13.46,25.02v11.93h-8.34v-11.72l-13.67-25.23h8.39l9.45,16.58,9.24-16.58h8.39Z"/>
      </g>
      <path class="cls-1" d="M143.01,32.37c-4.49-1.95-9.47-2.03-14.02-.24-4.55,1.79-8.13,5.25-10.08,9.74-1.66,3.83-1.89,7.92-.96,11.68l-21.59,6.28c-1.38-3.41-3.99-6.09-7.36-7.56-.07-.03-.13-.05-.2-.08l7.87-29.04c.57.09,1.14.14,1.71.14,1.44,0,2.89-.27,4.27-.82,2.89-1.14,5.17-3.34,6.41-6.19,1.24-2.85,1.29-6.02.15-8.91-1.14-2.89-3.34-5.17-6.19-6.41-2.85-1.24-6.02-1.29-8.91-.15-2.89,1.14-5.17,3.34-6.41,6.19s-1.29,6.02-.15,8.91,3.34,5.17,6.19,6.41c.01,0,.03,0,.04.02l-7.86,29.01c-2.53-.46-5.14-.23-7.59.74-1.57.62-2.96,1.51-4.15,2.57l-33-30.65c.58-.82,1.09-1.71,1.51-2.67,3.33-7.68-.2-16.63-7.87-19.97-7.68-3.34-16.63.2-19.97,7.87-1.62,3.72-1.69,7.84-.2,11.61,1.49,3.77,4.35,6.74,8.07,8.35,1.96.85,4.01,1.26,6.03,1.26,3.89,0,7.65-1.51,10.47-4.19l32.95,30.6c-2.49,3.45-3.36,7.97-2.04,12.26l-38.05,19.47c-1.78-3.06-4.5-5.61-7.99-7.12-8.71-3.78-18.88.23-22.67,8.94-1.83,4.22-1.91,8.9-.23,13.19s4.94,7.65,9.16,9.48c2.2.96,4.53,1.44,6.86,1.44,2.14,0,4.28-.4,6.32-1.21,4.28-1.69,7.65-4.94,9.48-9.16,1.84-4.24,1.83-8.81.34-12.83l37.95-19.42c1.48,2.63,3.75,4.71,6.57,5.93,1.61.7,3.3,1.06,5,1.13l1.53,32.6c-.98.16-1.95.42-2.91.8-7.33,2.89-10.94,11.21-8.05,18.54,1.4,3.55,4.1,6.35,7.6,7.87,1.83.79,3.76,1.19,5.69,1.19,1.77,0,3.55-.33,5.25-1,7.33-2.89,10.94-11.21,8.05-18.54-2.13-5.39-7.19-8.76-12.63-9.02l-1.53-32.63c.91-.16,1.8-.41,2.68-.76,3.46-1.37,6.19-4,7.67-7.41,1.1-2.52,1.41-5.25.96-7.9l21.72-6.32c1.78,4.14,5.06,7.64,9.5,9.57,2.34,1.02,4.82,1.53,7.29,1.53,2.27,0,4.55-.43,6.72-1.29,4.55-1.79,8.13-5.25,10.08-9.74,4.02-9.26-.24-20.08-9.5-24.1ZM92.21,14.09c-.65-1.65-.62-3.46.09-5.09.71-1.63,2.01-2.88,3.66-3.53.79-.31,1.61-.47,2.44-.47.9,0,1.8.19,2.65.55,1.63.71,2.88,2.01,3.53,3.66.65,1.65.62,3.46-.09,5.08-.71,1.63-2.01,2.88-3.66,3.53-1.65.65-3.46.62-5.08-.09-1.63-.71-2.88-2.01-3.53-3.66ZM28.45,102.18c-1.3,3-3.69,5.31-6.73,6.5-3.04,1.2-6.36,1.14-9.36-.16-3-1.3-5.31-3.69-6.5-6.73-1.2-3.04-1.14-6.36.16-9.36,2-4.6,6.51-7.36,11.23-7.36,1.62,0,3.27.33,4.86,1.01,6.18,2.69,9.03,9.9,6.34,16.09ZM24.72,24.63c-2.49-1.08-4.42-3.07-5.41-5.6-1-2.53-.95-5.29.13-7.79,1.66-3.83,5.42-6.12,9.35-6.12,1.35,0,2.72.27,4.04.84,5.15,2.24,7.52,8.24,5.28,13.39-2.24,5.15-8.24,7.52-13.39,5.28ZM95.4,122.28c1.88,4.77-.47,10.17-5.24,12.05-2.31.91-4.83.87-7.11-.12-2.28-.99-4.03-2.81-4.94-5.11-1.88-4.77.47-10.17,5.24-12.05,1.12-.44,2.27-.65,3.4-.65,3.71,0,7.22,2.23,8.66,5.88ZM91.65,68.63c-.95,2.19-2.7,3.88-4.92,4.76s-4.65.83-6.84-.12c-2.19-.95-3.88-2.7-4.76-4.92-1.81-4.59.45-9.79,5.04-11.6,1.06-.42,2.17-.63,3.28-.63,1.21,0,2.42.25,3.56.75,2.19.95,3.88,2.7,4.76,4.92.88,2.22.83,4.65-.12,6.84ZM147.93,54.48c-1.42,3.26-4.02,5.78-7.33,7.08-3.31,1.3-6.93,1.24-10.19-.17-6.74-2.93-9.83-10.79-6.91-17.52,1.42-3.26,4.02-5.78,7.33-7.08,1.58-.62,3.24-.94,4.89-.94,1.8,0,3.6.37,5.3,1.11,6.74,2.93,9.83,10.79,6.91,17.52Z"/>
    </g>
  </g>
</svg>